<?xml version="1.0" standalone="no"?><!DOCTYPE svg PUBLIC "-//W3C//DTD SVG 1.1//EN" "http://www.w3.org/Graphics/SVG/1.1/DTD/svg11.dtd"><svg height="1024" node-id="1" sillyvg="true" template-height="1024" template-width="1024" version="1.1" viewBox="0 0 1024 1024" width="1024" xmlns="http://www.w3.org/2000/svg" xmlns:xlink="http://www.w3.org/1999/xlink"><defs node-id="25"></defs><path d="M 0.00 0.00 L 1024.00 0.00 L 1024.00 1024.00 L 0.00 1024.00 Z" fill="none" node-id="28" stroke="none" target-height="1024" target-width="1024" target-x="0" target-y="0"></path><g node-id="61"><path d="M 528.00 879.00 C 525.00 875.00 526.00 879.00 526.00 871.00 C 524.00 860.00 523.00 849.00 530.00 848.00 C 534.00 846.00 616.00 839.00 608.00 880.00 C 596.00 881.00 535.00 882.00 528.00 879.00 Z M 493.00 879.00 C 483.00 882.00 448.00 880.00 435.00 880.00 C 427.00 880.00 412.00 883.00 412.00 875.00 C 410.00 851.00 451.00 847.00 470.00 847.00 C 490.00 847.00 497.00 840.00 493.00 879.00 Z M 448.00 834.00 C 444.00 801.00 441.00 680.00 441.00 636.00 C 441.00 619.00 437.00 613.00 452.00 613.00 L 580.00 614.00 C 584.00 650.00 580.00 802.00 574.00 834.00 C 566.00 834.00 557.00 834.00 548.00 834.00 C 544.00 834.00 538.00 835.00 535.00 835.00 C 527.00 834.00 527.00 834.00 526.00 832.00 C 520.00 820.00 522.00 687.00 518.00 659.00 C 505.00 657.00 505.00 657.00 504.00 670.00 L 496.00 835.00 L 448.00 834.00 Z M 427.00 652.00 C 402.00 655.00 399.00 632.00 398.00 609.00 C 398.00 585.00 399.00 561.00 400.00 537.00 L 428.00 545.00 L 427.00 652.00 Z M 595.00 658.00 C 664.00 662.00 627.00 640.00 630.00 625.00 C 636.00 623.00 644.00 623.00 652.00 624.00 C 652.00 636.00 655.00 705.00 649.00 707.00 C 639.00 711.00 604.00 712.00 597.00 710.00 L 595.00 658.00 Z M 614.00 621.00 C 618.00 629.00 623.00 640.00 625.00 647.00 L 609.00 648.00 C 606.00 633.00 596.00 622.00 595.00 605.00 C 611.00 604.00 608.00 608.00 614.00 621.00 Z M 638.00 529.00 C 644.00 542.00 649.00 568.00 639.00 580.00 C 619.00 603.00 549.00 592.00 565.00 556.00 C 573.00 536.00 596.00 549.00 609.00 551.00 C 610.00 544.00 609.00 545.00 607.00 539.00 L 638.00 529.00 Z M 594.00 446.00 C 611.00 454.00 635.00 494.00 639.00 513.00 C 629.00 519.00 610.00 528.00 596.00 528.00 L 594.00 446.00 Z M 480.00 421.00 C 483.00 429.00 492.00 439.00 497.00 443.00 C 507.00 451.00 509.00 457.00 522.00 446.00 C 546.00 425.00 534.00 410.00 561.00 429.00 L 561.00 486.00 C 562.00 568.00 558.00 528.00 552.00 555.00 C 546.00 585.00 567.00 591.00 577.00 600.00 L 441.00 600.00 C 441.00 579.00 445.00 507.00 441.00 492.00 L 433.00 492.00 C 429.00 503.00 430.00 517.00 430.00 529.00 C 420.00 531.00 401.00 522.00 391.00 520.00 C 393.00 507.00 414.00 467.00 423.00 456.00 C 435.00 442.00 453.00 427.00 480.00 421.00 Z M 509.00 437.00 C 506.00 434.00 500.00 429.00 497.00 426.00 C 493.00 421.00 492.00 417.00 493.00 407.00 C 494.00 398.00 497.00 400.00 508.00 400.00 C 515.00 401.00 521.00 400.00 528.00 401.00 C 529.00 416.00 528.00 428.00 509.00 437.00 Z M 414.00 337.00 C 378.00 347.00 361.00 315.00 380.00 297.00 C 394.00 285.00 400.00 299.00 417.00 286.00 C 439.00 268.00 449.00 248.00 460.00 221.00 C 460.00 222.00 460.00 222.00 461.00 223.00 C 468.00 234.00 473.00 247.00 486.00 257.00 C 495.00 264.00 512.00 276.00 529.00 276.00 C 525.00 267.00 516.00 266.00 515.00 253.00 C 520.00 272.00 584.00 276.00 604.00 285.00 C 615.00 290.00 605.00 287.00 613.00 292.00 C 625.00 291.00 634.00 291.00 641.00 298.00 C 645.00 303.00 649.00 310.00 646.00 320.00 C 641.00 340.00 626.00 340.00 605.00 338.00 C 593.00 368.00 555.00 393.00 508.00 391.00 C 459.00 389.00 436.00 372.00 414.00 337.00 Z M 640.00 282.00 C 643.00 257.00 649.00 244.00 642.00 218.00 C 628.00 173.00 591.00 140.00 541.00 138.00 C 527.00 137.00 526.00 131.00 512.00 129.00 C 463.00 122.00 396.00 156.00 379.00 215.00 C 372.00 241.00 377.00 256.00 379.00 282.00 C 346.00 294.00 348.00 354.00 406.00 354.00 C 412.00 357.00 417.00 366.00 421.00 370.00 C 442.00 393.00 458.00 391.00 478.00 402.00 C 474.00 408.00 450.00 415.00 441.00 421.00 C 405.00 444.00 375.00 500.00 377.00 529.00 L 387.00 534.00 C 388.00 563.00 383.00 591.00 385.00 622.00 C 387.00 667.00 413.00 662.00 426.00 669.00 L 432.00 837.00 C 409.00 842.00 386.00 867.00 401.00 894.00 C 415.00 897.00 491.00 896.00 505.00 893.00 C 509.00 882.00 511.00 818.00 511.00 801.00 C 511.00 809.00 511.00 887.00 515.00 891.00 C 523.00 897.00 608.00 897.00 620.00 893.00 C 625.00 881.00 624.00 865.00 617.00 855.00 C 608.00 841.00 597.00 841.00 589.00 837.00 L 596.00 725.00 C 611.00 722.00 636.00 726.00 651.00 722.00 C 669.00 717.00 666.00 702.00 666.00 682.00 C 666.00 596.00 673.00 616.00 627.00 609.00 C 630.00 602.00 633.00 603.00 640.00 598.00 C 645.00 595.00 647.00 592.00 650.00 588.00 C 664.00 571.00 659.00 553.00 655.00 535.00 C 650.00 513.00 663.00 529.00 641.00 483.00 C 606.00 411.00 560.00 418.00 544.00 404.00 C 547.00 400.00 546.00 401.00 554.00 398.00 C 577.00 391.00 603.00 377.00 611.00 354.00 C 673.00 354.00 672.00 293.00 640.00 282.00 Z" fill="#060605" fill-rule="evenodd" group-id="1" node-id="31" stroke="none" target-height="775" target-width="327" target-x="346" target-y="122"></path><path d="M 448.00 834.00 L 496.00 835.00 L 504.00 670.00 C 505.00 657.00 505.00 657.00 518.00 659.00 C 522.00 687.00 520.00 820.00 526.00 832.00 C 527.00 834.00 527.00 834.00 535.00 835.00 C 538.00 835.00 544.00 834.00 548.00 834.00 C 557.00 834.00 566.00 834.00 574.00 834.00 C 580.00 802.00 584.00 650.00 580.00 614.00 L 452.00 613.00 C 437.00 613.00 441.00 619.00 441.00 636.00 C 441.00 680.00 444.00 801.00 448.00 834.00 Z" fill="#caa785" fill-rule="evenodd" group-id="1" node-id="33" stroke="none" target-height="222" target-width="147" target-x="437" target-y="613"></path><path d="M 448.00 314.00 C 442.00 289.00 479.00 281.00 483.00 304.00 C 485.00 316.00 476.00 326.00 469.00 328.00 C 459.00 330.00 449.00 320.00 448.00 314.00 Z M 575.00 315.00 C 564.00 339.00 531.00 323.00 542.00 300.00 C 553.00 278.00 584.00 294.00 575.00 315.00 Z M 452.00 270.00 C 451.00 264.00 453.00 264.00 456.00 261.00 C 467.00 260.00 479.00 260.00 480.00 271.00 L 452.00 270.00 Z M 414.00 337.00 C 436.00 372.00 459.00 389.00 508.00 391.00 C 555.00 393.00 593.00 368.00 605.00 338.00 C 626.00 340.00 641.00 340.00 646.00 320.00 C 649.00 310.00 645.00 303.00 641.00 298.00 C 634.00 291.00 625.00 291.00 613.00 292.00 C 605.00 287.00 615.00 290.00 604.00 285.00 C 584.00 276.00 520.00 272.00 515.00 253.00 C 516.00 266.00 525.00 267.00 529.00 276.00 C 512.00 276.00 495.00 264.00 486.00 257.00 C 473.00 247.00 468.00 234.00 461.00 223.00 C 460.00 222.00 460.00 222.00 460.00 221.00 C 449.00 248.00 439.00 268.00 417.00 286.00 C 400.00 299.00 394.00 285.00 380.00 297.00 C 361.00 315.00 378.00 347.00 414.00 337.00 Z" fill="#f5c3a4" fill-rule="evenodd" group-id="1" node-id="35" stroke="none" target-height="172" target-width="288" target-x="361" target-y="221"></path><path d="M 480.00 421.00 C 453.00 427.00 435.00 442.00 423.00 456.00 C 414.00 467.00 393.00 507.00 391.00 520.00 C 401.00 522.00 420.00 531.00 430.00 529.00 C 430.00 517.00 429.00 503.00 433.00 492.00 L 441.00 492.00 C 445.00 507.00 441.00 579.00 441.00 600.00 L 577.00 600.00 C 567.00 591.00 546.00 585.00 552.00 555.00 C 558.00 528.00 562.00 568.00 561.00 486.00 L 561.00 429.00 C 534.00 410.00 546.00 425.00 522.00 446.00 C 509.00 457.00 507.00 451.00 497.00 443.00 C 492.00 439.00 483.00 429.00 480.00 421.00 Z" fill="#535354" fill-rule="evenodd" group-id="1" node-id="37" stroke="none" target-height="190" target-width="186" target-x="391" target-y="410"></path><path d="M 607.00 539.00 C 609.00 545.00 610.00 544.00 609.00 551.00 C 596.00 549.00 573.00 536.00 565.00 556.00 C 549.00 592.00 619.00 603.00 639.00 580.00 C 649.00 568.00 644.00 542.00 638.00 529.00 L 607.00 539.00 Z" fill="#f5c3a4" fill-rule="evenodd" group-id="1" node-id="39" stroke="none" target-height="74" target-width="100" target-x="549" target-y="529"></path><path d="M 630.00 625.00 C 627.00 640.00 664.00 662.00 595.00 658.00 L 597.00 710.00 C 604.00 712.00 639.00 711.00 649.00 707.00 C 655.00 705.00 652.00 636.00 652.00 624.00 C 644.00 623.00 636.00 623.00 630.00 625.00 Z" fill="#535354" fill-rule="evenodd" group-id="1" node-id="41" stroke="none" target-height="89" target-width="69" target-x="595" target-y="623"></path><path d="M 427.00 652.00 L 428.00 545.00 L 400.00 537.00 C 399.00 561.00 398.00 585.00 398.00 609.00 C 399.00 632.00 402.00 655.00 427.00 652.00 Z" fill="#f5c3a4" fill-rule="evenodd" group-id="1" node-id="43" stroke="none" target-height="118" target-width="30" target-x="398" target-y="537"></path><path d="M 528.00 879.00 C 535.00 882.00 596.00 881.00 608.00 880.00 C 616.00 839.00 534.00 846.00 530.00 848.00 C 523.00 849.00 524.00 860.00 526.00 871.00 C 526.00 879.00 525.00 875.00 528.00 879.00 Z" fill="#343434" fill-rule="evenodd" group-id="1" node-id="45" stroke="none" target-height="43" target-width="93" target-x="523" target-y="839"></path><path d="M 493.00 879.00 C 497.00 840.00 490.00 847.00 470.00 847.00 C 451.00 847.00 410.00 851.00 412.00 875.00 C 412.00 883.00 427.00 880.00 435.00 880.00 C 448.00 880.00 483.00 882.00 493.00 879.00 Z" fill="#343434" fill-rule="evenodd" group-id="1" node-id="47" stroke="none" target-height="43" target-width="87" target-x="410" target-y="840"></path><path d="M 596.00 528.00 C 610.00 528.00 629.00 519.00 639.00 513.00 C 635.00 494.00 611.00 454.00 594.00 446.00 L 596.00 528.00 Z" fill="#535354" fill-rule="evenodd" group-id="1" node-id="49" stroke="none" target-height="82" target-width="45" target-x="594" target-y="446"></path><path d="M 575.00 315.00 C 584.00 294.00 553.00 278.00 542.00 300.00 C 531.00 323.00 564.00 339.00 575.00 315.00 Z" fill="#060605" fill-rule="evenodd" group-id="1" node-id="51" stroke="none" target-height="61" target-width="53" target-x="531" target-y="278"></path><path d="M 448.00 314.00 C 449.00 320.00 459.00 330.00 469.00 328.00 C 476.00 326.00 485.00 316.00 483.00 304.00 C 479.00 281.00 442.00 289.00 448.00 314.00 Z" fill="#060605" fill-rule="evenodd" group-id="1" node-id="53" stroke="none" target-height="49" target-width="43" target-x="442" target-y="281"></path><path d="M 509.00 437.00 C 528.00 428.00 529.00 416.00 528.00 401.00 C 521.00 400.00 515.00 401.00 508.00 400.00 C 497.00 400.00 494.00 398.00 493.00 407.00 C 492.00 417.00 493.00 421.00 497.00 426.00 C 500.00 429.00 506.00 434.00 509.00 437.00 Z" fill="#f5c3a4" fill-rule="evenodd" group-id="1" node-id="55" stroke="none" target-height="39" target-width="37" target-x="492" target-y="398"></path><path d="M 609.00 648.00 L 625.00 647.00 C 623.00 640.00 618.00 629.00 614.00 621.00 C 608.00 608.00 611.00 604.00 595.00 605.00 C 596.00 622.00 606.00 633.00 609.00 648.00 Z" fill="#4f8e78" fill-rule="evenodd" group-id="1" node-id="57" stroke="none" target-height="44" target-width="30" target-x="595" target-y="604"></path><path d="M 452.00 270.00 L 480.00 271.00 C 479.00 260.00 467.00 260.00 456.00 261.00 C 453.00 264.00 451.00 264.00 452.00 270.00 Z" fill="#060605" fill-rule="evenodd" group-id="1" node-id="59" stroke="none" target-height="11" target-width="29" target-x="451" target-y="260"></path></g></svg>